<mxfile host="app.diagrams.net" modified="2024-03-02T07:19:13.645Z" agent="Mozilla/5.0 (Windows NT 10.0; Win64; x64) AppleWebKit/537.36 (KHTML, like Gecko) Chrome/122.0.0.0 Safari/537.36" etag="SPDSrWfPJXClFnsMVSez" version="23.1.7" type="github">
  <diagram name="第 1 页" id="WhuUOLO2NgFK4sUhm9D_">
    <mxGraphModel dx="2261" dy="738" grid="1" gridSize="10" guides="1" tooltips="1" connect="1" arrows="1" fold="1" page="1" pageScale="1" pageWidth="827" pageHeight="1169" math="0" shadow="0">
      <root>
        <mxCell id="0" />
        <mxCell id="1" parent="0" />
        <mxCell id="MjOEwkXYd55NLU5AAJlq-4" value="" style="edgeStyle=orthogonalEdgeStyle;rounded=0;orthogonalLoop=1;jettySize=auto;html=1;fontSize=17;" edge="1" parent="1" source="MjOEwkXYd55NLU5AAJlq-1" target="MjOEwkXYd55NLU5AAJlq-3">
          <mxGeometry relative="1" as="geometry" />
        </mxCell>
        <mxCell id="MjOEwkXYd55NLU5AAJlq-1" value="文本特征值" style="rounded=0;whiteSpace=wrap;html=1;fontSize=17;" vertex="1" parent="1">
          <mxGeometry y="320" width="120" height="60" as="geometry" />
        </mxCell>
        <mxCell id="MjOEwkXYd55NLU5AAJlq-6" value="" style="edgeStyle=orthogonalEdgeStyle;rounded=0;orthogonalLoop=1;jettySize=auto;html=1;fontSize=17;" edge="1" parent="1" source="MjOEwkXYd55NLU5AAJlq-3" target="MjOEwkXYd55NLU5AAJlq-5">
          <mxGeometry relative="1" as="geometry" />
        </mxCell>
        <mxCell id="MjOEwkXYd55NLU5AAJlq-3" value="计算文本哈&lt;br&gt;希码" style="whiteSpace=wrap;html=1;rounded=0;fontSize=17;" vertex="1" parent="1">
          <mxGeometry x="190" y="320" width="120" height="60" as="geometry" />
        </mxCell>
        <mxCell id="MjOEwkXYd55NLU5AAJlq-8" value="" style="edgeStyle=orthogonalEdgeStyle;rounded=0;orthogonalLoop=1;jettySize=auto;html=1;fontSize=17;" edge="1" parent="1" source="MjOEwkXYd55NLU5AAJlq-5" target="MjOEwkXYd55NLU5AAJlq-7">
          <mxGeometry relative="1" as="geometry" />
        </mxCell>
        <mxCell id="MjOEwkXYd55NLU5AAJlq-5" value="除以10&lt;sup&gt;7&lt;/sup&gt;，缩小数据范围&lt;sup&gt;&lt;br&gt;&lt;/sup&gt;" style="whiteSpace=wrap;html=1;rounded=0;fontSize=17;" vertex="1" parent="1">
          <mxGeometry x="380" y="320" width="120" height="60" as="geometry" />
        </mxCell>
        <mxCell id="MjOEwkXYd55NLU5AAJlq-10" value="" style="edgeStyle=orthogonalEdgeStyle;rounded=0;orthogonalLoop=1;jettySize=auto;html=1;fontSize=17;" edge="1" parent="1" source="MjOEwkXYd55NLU5AAJlq-7" target="MjOEwkXYd55NLU5AAJlq-9">
          <mxGeometry relative="1" as="geometry" />
        </mxCell>
        <mxCell id="MjOEwkXYd55NLU5AAJlq-7" value="添加随机噪声" style="whiteSpace=wrap;html=1;rounded=0;fontSize=17;" vertex="1" parent="1">
          <mxGeometry x="570" y="320" width="120" height="60" as="geometry" />
        </mxCell>
        <mxCell id="MjOEwkXYd55NLU5AAJlq-9" value="计算得到连续性数值" style="whiteSpace=wrap;html=1;rounded=0;fontSize=17;" vertex="1" parent="1">
          <mxGeometry x="760" y="320" width="120" height="60" as="geometry" />
        </mxCell>
        <mxCell id="MjOEwkXYd55NLU5AAJlq-11" value="Horizontal Container" style="swimlane;horizontal=0;whiteSpace=wrap;html=1;" vertex="1" parent="1">
          <mxGeometry x="-250" y="40" width="200" height="200" as="geometry" />
        </mxCell>
        <mxCell id="MjOEwkXYd55NLU5AAJlq-12" value="Horizontal Container" style="swimlane;horizontal=0;whiteSpace=wrap;html=1;" vertex="1" parent="1">
          <mxGeometry x="940" y="450" width="200" height="200" as="geometry" />
        </mxCell>
      </root>
    </mxGraphModel>
  </diagram>
</mxfile>
